<?xml version="1.0" encoding="UTF-8" standalone="no"?>
<!-- Created with Inkscape (http://www.inkscape.org/) -->

<svg
   xmlns:dc="http://purl.org/dc/elements/1.1/"
   xmlns:cc="http://creativecommons.org/ns#"
   xmlns:rdf="http://www.w3.org/1999/02/22-rdf-syntax-ns#"
   xmlns:svg="http://www.w3.org/2000/svg"
   xmlns="http://www.w3.org/2000/svg"
   xmlns:sodipodi="http://sodipodi.sourceforge.net/DTD/sodipodi-0.dtd"
   xmlns:inkscape="http://www.inkscape.org/namespaces/inkscape"
   width="1052.36"
   height="344.09"
   id="svg2"
   version="1.1"
   inkscape:version="0.48.1 r9760"
   sodipodi:docname="librescribe.svg">
  <defs
     id="defs4" />
  <sodipodi:namedview
     id="base"
     pagecolor="#ffffff"
     bordercolor="#666666"
     borderopacity="1.0"
     inkscape:pageopacity="0.0"
     inkscape:pageshadow="2"
     inkscape:zoom="0.35"
     inkscape:cx="644.94622"
     inkscape:cy="711.32176"
     inkscape:document-units="px"
     inkscape:current-layer="layer1"
     showgrid="false"
     width="1052.36px"
     inkscape:window-width="1366"
     inkscape:window-height="719"
     inkscape:window-x="0"
     inkscape:window-y="0"
     inkscape:window-maximized="1" />
  <metadata
     id="metadata7">
    <rdf:RDF>
      <cc:Work
         rdf:about="">
        <dc:format>image/svg+xml</dc:format>
        <dc:type
           rdf:resource="http://purl.org/dc/dcmitype/StillImage" />
        <dc:title></dc:title>
      </cc:Work>
    </rdf:RDF>
  </metadata>
  <g
     inkscape:label="Layer 1"
     inkscape:groupmode="layer"
     id="layer1"
     transform="translate(0,-708.27218)">
    <g
       style="font-size:40px;font-style:normal;font-variant:normal;font-weight:normal;font-stretch:normal;line-height:125%;letter-spacing:0px;word-spacing:0px;fill:#000000;fill-opacity:1;stroke:none;font-family:Trajan Pro;-inkscape-font-specification:Trajan Pro"
       id="text2985">
      <path
         d="m 114.20499,867.6452 c 0,-22.46398 0,-26.496 0.288,-31.104 0.288,-5.04 1.44,-7.488 5.616,-8.208 1.728,-0.288 3.744,-0.432 4.752,-0.432 0.576,0 1.152,-0.288 1.152,-0.864 0,-0.864 -0.72,-1.152 -2.304,-1.152 -4.32,0 -14.832,0.432 -15.552,0.432 -0.72,0 -9.792007,-0.432 -16.272,-0.432 -1.583999,0 -2.304,0.288 -2.304,1.152 0,0.576 0.576,0.864 1.152,0.864 1.295998,0 3.744001,0.144 4.896,0.432 4.75199,1.008 5.904,3.312 6.192,8.208 0.288,4.608 0.288,8.64002 0.288,31.104 l 0,25.344 c 0,13.82399 0,25.20001 -0.72,31.248 -0.576,4.176 -1.296,7.344 -4.176,7.92 -1.295999,0.288 -3.024002,0.576 -4.32,0.576 -0.863999,0 -1.152,0.432 -1.152,0.864 0,0.864 0.720001,1.152 2.304,1.152 2.159998,0 5.328003,-0.144 8.208,-0.288 2.88,0 5.328,-0.144 5.904,-0.144 4.176,0 8.64001,0.144 14.688,0.432 6.04799,0.144 13.53601,0.432 23.904,0.432 7.63199,0 8.064,-0.576 9.072,-3.888 1.152,-4.176 2.16,-12.816 2.16,-14.4 0,-1.584 -0.144,-2.16 -0.864,-2.16 -0.864,0 -1.152,0.72 -1.296,1.872 -0.432,2.736 -1.872,6.336 -3.744,8.64 -3.456,4.176 -9.79201,4.32 -17.424,4.32 -11.23199,0 -14.976,-1.008 -17.28,-3.312 -2.592,-2.592 -3.168,-11.80802 -3.168,-32.976 l 0,-25.632"
         style="font-size:144px;-inkscape-font-specification:Trajan Pro"
         id="path3009" />
      <path
         d="m 195.53574,877.5812 c 0,-19.00798 0,-22.464 0.144,-26.352 0.288,-4.32 1.008,-6.048 4.464,-6.768 1.44,-0.288 2.304,-0.288 3.168,-0.288 0.432,0 1.008,-0.576 1.008,-1.008 0,-0.72 -0.576,-1.008 -2.016,-1.008 -3.888,0 -12.096,0.288 -12.672,0.288 -0.72,0 -8.64,-0.288 -12.816,-0.288 -1.44,0 -2.016,0.288 -2.016,1.008 0,0.432 0.432,1.008 1.008,1.008 0.864,0 2.448,0.144 3.888,0.432 2.736,0.576 3.744,2.448 4.032,6.624 0.288,3.888 0.288,7.34402 0.288,26.352 l 0,21.6 c 0,11.80799 -0.144,21.456 -0.72,26.496 -0.432,3.6 -0.864,5.904 -3.312,6.48 -1.152,0.288 -2.736,0.576 -3.888,0.576 -0.72,0 -1.008,0.576 -1.008,1.008 0,0.72 0.72,1.008 2.016,1.008 3.888,0 11.808,-0.432 12.528,-0.432 0.576,0 8.78401,0.432 15.84,0.432 1.44,0 2.016,-0.432 2.016,-1.008 0,-0.432 -0.288,-1.008 -1.008,-1.008 -1.152,0 -3.888,-0.288 -5.76,-0.576 -3.744,-0.576 -4.176,-2.88 -4.608,-6.48 -0.576,-5.04 -0.576,-14.68801 -0.576,-26.496 l 0,-21.6"
         style="font-size:144px;-inkscape-font-specification:Trajan Pro"
         id="path3011" />
      <path
         d="m 237.17199,899.1812 c 0,11.80799 0,21.456 -0.72,26.496 -0.576,3.6 -0.864,6.336 -3.312,6.768 -1.152,0.144 -2.736,0.576 -3.888,0.576 -0.72,0 -1.008,0.288 -1.008,0.72 0,0.72 0.72,1.008 2.016,1.008 2.016,0 5.04,-0.144 7.632,-0.288 2.592,0 4.896,-0.144 5.184,-0.144 0.576,0 4.176,0.144 8.208,0.288 4.032,0.288 8.64,0.432 10.944,0.432 21.59998,0 31.824,-13.53601 31.824,-27.216 0,-13.82399 -12.67201,-22.608 -22.32,-25.488 6.47999,-5.75999 12.816,-11.80801 12.816,-21.456 0,-6.47999 -5.47202,-18.72 -26.64,-18.72 -5.90399,0 -11.808,0.288 -14.832,0.288 -0.72,0 -8.92801,-0.288 -14.688,-0.288 -1.44,0 -2.016,0.288 -2.016,1.008 0,0.432 0.576,0.72 1.008,0.72 1.152,0 3.312,0.144 4.32,0.288 4.176,0.576 4.896,2.88 5.184,7.056 0.288,3.888 0.288,7.34402 0.288,26.352 l 0,21.6 m 10.944,-51.264 c 0,-0.72 0.432,-1.008 1.584,-1.296 2.016,-0.432 5.04,-0.576 6.48,-0.576 12.67199,0 17.856,10.36801 17.856,19.728 0,5.90399 -2.16,10.08 -4.896,13.104 -2.592,2.88 -5.32801,3.168 -12.384,3.168 -4.752,0 -7.056,-0.432 -7.776,-0.576 -0.576,-0.144 -0.864,-0.432 -0.864,-1.296 l 0,-32.256 m 0,39.024 c 0,-0.576 0.288,-0.864 0.72,-0.864 2.016,0 8.352,0 9.936,0.288 3.024,0.576 7.056,0.432 11.376,3.168 9.93599,6.33599 12.096,16.84801 12.096,22.32 0,15.69598 -10.22401,18.864 -18.576,18.864 -2.304,0 -7.632,-0.144 -11.088,-1.728 -3.888,-1.872 -3.888,-3.31201 -4.32,-9.216 -0.144,-1.872 -0.144,-16.56001 -0.144,-26.064 l 0,-6.768"
         style="font-size:144px;-inkscape-font-specification:Trajan Pro"
         id="path3013" />
      <path
         d="m 321.26574,899.1812 c 0,11.80799 0,21.456 -0.72,26.496 -0.576,3.6 -0.864,5.904 -3.312,6.48 -1.152,0.288 -2.736,0.576 -3.888,0.576 -0.72,0 -1.008,0.576 -1.008,1.008 0,0.72 0.72,1.008 2.016,1.008 3.888,0 12.384,-0.432 12.528,-0.432 0.576,0 8.64001,0.432 15.552,0.432 1.44,0 2.016,-0.432 2.016,-1.008 0,-0.432 -0.144,-1.008 -1.008,-1.008 -1.152,0 -3.888,-0.288 -5.616,-0.576 -3.888,-0.576 -4.608,-2.88 -5.04,-6.48 -0.576,-5.04 -0.576,-14.54401 -0.576,-26.352 l 0,-2.88 c 0,-0.72 0.288,-1.008 0.864,-1.008 l 16.128,0.288 c 0.864,0 1.152,0.144 1.728,0.72 2.736,3.312 8.35201,11.23201 13.68,17.856 7.19999,9.21599 11.80801,15.12 17.28,18 3.168,1.728 6.33601,2.448 13.536,2.448 l 7.92,0 c 2.304,0 3.024,-0.288 3.024,-1.008 0,-0.432 -0.432,-1.008 -1.152,-1.008 -0.72,0 -2.016,0 -4.464,-0.432 -3.168,-0.432 -7.34401,-1.58401 -14.112,-8.496 -7.34399,-7.63199 -16.12801,-18.72001 -26.496,-31.68 11.80799,-10.07999 15.552,-18.86401 15.552,-27.936 0,-8.49599 -5.616,-14.4 -8.784,-16.704 -6.62399,-4.608 -15.55201,-5.328 -23.616,-5.328 -3.888,0 -14.544,0.288 -15.84,0.288 -0.72,0 -9.21601,-0.288 -14.976,-0.288 -1.44,0 -2.016,0.288 -2.016,1.008 0,0.432 0.576,1.008 1.008,1.008 1.152,0 3.312,0.144 4.32,0.288 4.176,0.576 4.896,2.592 5.184,6.768 0.288,3.888 0.288,7.34402 0.288,26.352 l 0,21.6 m 10.944,-50.544 c 0,-0.72 0.432,-1.152 1.008,-1.44 1.296,-0.288 5.328,-0.72 9.072,-0.72 13.53599,0 21.888,8.78401 21.888,24.048 0,9.35999 -3.312,15.84 -7.632,18.72 -3.024,2.016 -6.48,2.16 -9.504,2.16 -5.61599,0 -12.096,-0.864 -13.968,-1.872 -0.576,-0.432 -0.864,-0.864 -0.864,-1.584 l 0,-39.312"
         style="font-size:144px;-inkscape-font-specification:Trajan Pro"
         id="path3015" />
      <path
         d="m 418.01574,899.1812 c 0,11.80799 0,21.456 -0.72,26.496 -0.576,3.6 -0.864,6.048 -3.312,6.48 -1.152,0.144 -2.736,0.576 -3.888,0.576 -0.72,0 -1.008,0.576 -1.008,1.008 0,0.72 0.72,1.008 2.016,1.008 2.016,0 4.896,-0.144 7.344,-0.288 2.736,-0.144 5.184,-0.144 5.472,-0.144 1.872,0 5.18401,0 10.512,0.288 5.18399,0.144 12.52801,0.432 22.032,0.432 4.89599,0 6.192,0 7.056,-3.168 0.72,-2.592 1.728,-10.944 1.728,-11.808 0,-0.864 -0.144,-1.872 -0.864,-1.872 -0.72,0 -1.008,0.432 -1.296,1.872 -0.72,4.89599 -2.448,7.056 -5.76,8.496 -3.312,1.296 -9.36,1.296 -12.672,1.296 -12.52799,0 -14.832,-1.58401 -15.12,-9.792 -0.144,-2.448 0,-16.704 0,-20.88 l 0,-10.224 c 0,-0.432 0.144,-0.864 0.864,-0.864 2.16,0 15.696,0.144 19.152,0.576 4.89599,0.576 6.048,2.016 6.48,3.744 0.576,1.584 0.576,2.88 0.576,4.032 0,0.72 0.288,1.152 0.864,1.152 0.864,0 1.152,-1.296 1.152,-2.304 0,-0.864 0.288,-5.472 0.576,-7.92 0.288,-4.032 1.008,-6.048 1.008,-6.768 0,-0.72 -0.288,-1.008 -0.72,-1.008 -0.432,0 -1.008,0.72 -1.872,1.584 -1.296,1.296 -3.168,1.44 -6.192,1.728 -2.88,0.288 -19.584,0.288 -21.168,0.288 -0.72,0 -0.72,-0.432 -0.72,-1.296 l 0,-33.264 c 0,-0.864 0.144,-1.296 0.72,-1.296 1.44,0 16.128,0.144 18.288,0.432 6.91199,0.864 8.208,1.728 9.072,3.744 0.576,1.44 0.72,3.456 0.72,4.32 0,1.008 0.288,1.584 1.008,1.584 0.576,0 1.008,-0.72 1.152,-1.296 0.288,-1.44 0.576,-6.912 0.72,-8.064 0.288,-3.456 1.008,-4.896 1.008,-5.76 0,-0.576 -0.144,-1.152 -0.576,-1.152 -0.576,0 -1.152,0.432 -1.728,0.576 -1.008,0.144 -3.312,0.576 -5.76,0.72 -2.88,0.144 -29.376,0 -30.24,0 -0.72,0 -8.92801,-0.288 -14.688,-0.288 -1.44,0 -2.016,0.288 -2.016,1.008 0,0.432 0.576,1.008 1.008,1.008 1.152,0 3.312,0.144 4.32,0.288 4.176,0.576 4.896,2.592 5.184,6.768 0.288,3.888 0.288,7.34402 0.288,26.352 l 0,21.6"
         style="font-size:144px;-inkscape-font-specification:Trajan Pro"
         id="path3017" />
      <path
         d="m 510.72024,936.7652 c 7.77599,0 15.55201,-1.728 21.744,-6.048 9.93599,-7.05599 12.24,-18.00001 12.24,-23.904 0,-11.51999 -4.03202,-20.44801 -21.024,-33.84 l -4.032,-3.168 c -13.82399,-10.79999 -17.568,-15.98401 -17.568,-24.192 0,-10.51199 7.77601,-16.704 17.712,-16.704 13.24799,0 17.136,6.048 18,7.632 0.864,1.584 1.728,5.472 1.872,7.2 0.144,1.152 0.288,1.872 1.152,1.872 0.72,0 1.008,-1.008 1.008,-3.312 0,-9.79199 0.576,-14.544 0.576,-15.264 0,-0.72 -0.288,-1.008 -1.44,-1.008 -1.152,0 -2.304,-0.144 -5.04,-0.72 -3.6,-0.864 -7.77601,-1.44 -13.392,-1.44 -18.28798,0 -29.808,10.51202 -29.808,25.92 0,9.79199 3.45602,18.72001 18.72,31.248 l 6.48,5.328 c 12.38399,10.22399 16.56,15.98401 16.56,25.92 0,9.21599 -6.76801,19.152 -20.592,19.152 -9.64799,0 -19.152,-4.03201 -21.312,-14.688 -0.432,-2.016 -0.432,-4.032 -0.432,-5.328 0,-1.152 -0.144,-1.584 -1.008,-1.584 -0.72,0 -1.008,0.72 -1.152,2.304 -0.144,2.304 -0.72,8.06401 -0.72,15.264 0,3.888 0.144,4.464 2.16,5.472 5.90399,2.88 12.52801,3.888 19.296,3.888"
         style="font-size:144px;-inkscape-font-specification:Trajan Pro"
         id="path3019" />
      <path
         d="m 622.22124,936.3332 c 8.20799,0 17.712,-0.72 22.896,-2.736 2.16,-0.864 2.448,-1.296 3.168,-3.6 1.296,-4.176 3.024,-14.832 3.024,-15.696 0,-0.864 -0.576,-1.728 -1.152,-1.728 -0.864,0 -1.008,0.432 -1.296,1.728 -0.432,2.304 -2.16,7.488 -4.896,10.224 -5.04,5.03999 -11.37601,5.76 -20.88,5.76 -27.07197,0 -45.648,-20.88002 -45.648,-44.352 0,-12.38399 2.01601,-23.32801 11.376,-31.968 4.464,-4.176 12.24002,-8.496 28.512,-8.496 11.23199,0 20.448,3.024 24.912,6.768 3.312,2.592 5.328,7.488 5.328,12.24 0,1.728 0.144,2.592 1.008,2.592 0.72,0 1.296,-0.72 1.44,-2.592 0.144,-1.728 0.144,-8.496 0.288,-12.528 0.288,-4.464 0.576,-5.904 0.576,-6.912 0,-0.72 -0.288,-1.296 -1.584,-1.296 -4.176,-0.144 -8.20801,-1.008 -12.96,-1.872 -6.19199,-1.008 -13.39201,-1.44 -18.432,-1.44 -19.43998,0 -30.96001,5.76001 -38.592,13.104 -11.23199,10.94399 -14.256,25.20001 -14.256,33.408 0,11.66399 3.02401,25.63201 15.408,36.288 9.93599,8.63999 22.75202,13.104 41.76,13.104"
         style="font-size:144px;-inkscape-font-specification:Trajan Pro"
         id="path3021" />
      <path
         d="m 681.54699,899.1812 c 0,11.80799 0,21.456 -0.72,26.496 -0.576,3.6 -0.864,5.904 -3.312,6.48 -1.152,0.288 -2.736,0.576 -3.888,0.576 -0.72,0 -1.008,0.576 -1.008,1.008 0,0.72 0.72,1.008 2.016,1.008 3.888,0 12.384,-0.432 12.528,-0.432 0.576,0 8.64001,0.432 15.552,0.432 1.44,0 2.016,-0.432 2.016,-1.008 0,-0.432 -0.144,-1.008 -1.008,-1.008 -1.152,0 -3.888,-0.288 -5.616,-0.576 -3.888,-0.576 -4.608,-2.88 -5.04,-6.48 -0.576,-5.04 -0.576,-14.54401 -0.576,-26.352 l 0,-2.88 c 0,-0.72 0.288,-1.008 0.864,-1.008 l 16.128,0.288 c 0.864,0 1.152,0.144 1.728,0.72 2.736,3.312 8.35201,11.23201 13.68,17.856 7.19999,9.21599 11.80801,15.12 17.28,18 3.168,1.728 6.33601,2.448 13.536,2.448 l 7.92,0 c 2.304,0 3.024,-0.288 3.024,-1.008 0,-0.432 -0.432,-1.008 -1.152,-1.008 -0.72,0 -2.016,0 -4.464,-0.432 -3.168,-0.432 -7.34401,-1.58401 -14.112,-8.496 -7.34399,-7.63199 -16.12801,-18.72001 -26.496,-31.68 11.80799,-10.07999 15.552,-18.86401 15.552,-27.936 0,-8.49599 -5.616,-14.4 -8.784,-16.704 -6.62399,-4.608 -15.55201,-5.328 -23.616,-5.328 -3.888,0 -14.544,0.288 -15.84,0.288 -0.72,0 -9.21601,-0.288 -14.976,-0.288 -1.44,0 -2.016,0.288 -2.016,1.008 0,0.432 0.576,1.008 1.008,1.008 1.152,0 3.312,0.144 4.32,0.288 4.176,0.576 4.896,2.592 5.184,6.768 0.288,3.888 0.288,7.34402 0.288,26.352 l 0,21.6 m 10.944,-50.544 c 0,-0.72 0.432,-1.152 1.008,-1.44 1.296,-0.288 5.328,-0.72 9.072,-0.72 13.53599,0 21.888,8.78401 21.888,24.048 0,9.35999 -3.312,15.84 -7.632,18.72 -3.024,2.016 -6.48,2.16 -9.504,2.16 -5.61599,0 -12.096,-0.864 -13.968,-1.872 -0.576,-0.432 -0.864,-0.864 -0.864,-1.584 l 0,-39.312"
         style="font-size:144px;-inkscape-font-specification:Trajan Pro"
         id="path3023" />
      <path
         d="m 789.81699,877.5812 c 0,-19.00798 0,-22.464 0.144,-26.352 0.288,-4.32 1.008,-6.048 4.464,-6.768 1.44,-0.288 2.304,-0.288 3.168,-0.288 0.432,0 1.008,-0.576 1.008,-1.008 0,-0.72 -0.576,-1.008 -2.016,-1.008 -3.888,0 -12.096,0.288 -12.672,0.288 -0.72,0 -8.64,-0.288 -12.816,-0.288 -1.44,0 -2.016,0.288 -2.016,1.008 0,0.432 0.432,1.008 1.008,1.008 0.864,0 2.448,0.144 3.888,0.432 2.736,0.576 3.744,2.448 4.032,6.624 0.288,3.888 0.288,7.34402 0.288,26.352 l 0,21.6 c 0,11.80799 -0.144,21.456 -0.72,26.496 -0.432,3.6 -0.864,5.904 -3.312,6.48 -1.152,0.288 -2.736,0.576 -3.888,0.576 -0.72,0 -1.008,0.576 -1.008,1.008 0,0.72 0.72,1.008 2.016,1.008 3.888,0 11.808,-0.432 12.528,-0.432 0.576,0 8.78401,0.432 15.84,0.432 1.44,0 2.016,-0.432 2.016,-1.008 0,-0.432 -0.288,-1.008 -1.008,-1.008 -1.152,0 -3.888,-0.288 -5.76,-0.576 -3.744,-0.576 -4.176,-2.88 -4.608,-6.48 -0.576,-5.04 -0.576,-14.68801 -0.576,-26.496 l 0,-21.6"
         style="font-size:144px;-inkscape-font-specification:Trajan Pro"
         id="path3025" />
      <path
         d="m 831.45324,899.1812 c 0,11.80799 0,21.456 -0.72,26.496 -0.576,3.6 -0.864,6.336 -3.312,6.768 -1.152,0.144 -2.736,0.576 -3.888,0.576 -0.72,0 -1.008,0.288 -1.008,0.72 0,0.72 0.72,1.008 2.016,1.008 2.016,0 5.04,-0.144 7.632,-0.288 2.592,0 4.896,-0.144 5.184,-0.144 0.576,0 4.176,0.144 8.208,0.288 4.032,0.288 8.64,0.432 10.944,0.432 21.59998,0 31.824,-13.53601 31.824,-27.216 0,-13.82399 -12.67201,-22.608 -22.32,-25.488 6.47999,-5.75999 12.816,-11.80801 12.816,-21.456 0,-6.47999 -5.47202,-18.72 -26.64,-18.72 -5.90399,0 -11.808,0.288 -14.832,0.288 -0.72,0 -8.92801,-0.288 -14.688,-0.288 -1.44,0 -2.016,0.288 -2.016,1.008 0,0.432 0.576,0.72 1.008,0.72 1.152,0 3.312,0.144 4.32,0.288 4.176,0.576 4.896,2.88 5.184,7.056 0.288,3.888 0.288,7.34402 0.288,26.352 l 0,21.6 m 10.944,-51.264 c 0,-0.72 0.432,-1.008 1.584,-1.296 2.016,-0.432 5.04,-0.576 6.48,-0.576 12.67199,0 17.856,10.36801 17.856,19.728 0,5.90399 -2.16,10.08 -4.896,13.104 -2.592,2.88 -5.32801,3.168 -12.384,3.168 -4.752,0 -7.056,-0.432 -7.776,-0.576 -0.576,-0.144 -0.864,-0.432 -0.864,-1.296 l 0,-32.256 m 0,39.024 c 0,-0.576 0.288,-0.864 0.72,-0.864 2.016,0 8.352,0 9.936,0.288 3.024,0.576 7.056,0.432 11.376,3.168 9.93599,6.33599 12.096,16.84801 12.096,22.32 0,15.69598 -10.22401,18.864 -18.576,18.864 -2.304,0 -7.632,-0.144 -11.088,-1.728 -3.888,-1.872 -3.888,-3.31201 -4.32,-9.216 -0.144,-1.872 -0.144,-16.56001 -0.144,-26.064 l 0,-6.768"
         style="font-size:144px;-inkscape-font-specification:Trajan Pro"
         id="path3027" />
      <path
         d="m 915.54699,899.1812 c 0,11.80799 0,21.456 -0.72,26.496 -0.576,3.6 -0.864,6.048 -3.312,6.48 -1.152,0.144 -2.736,0.576 -3.888,0.576 -0.72,0 -1.008,0.576 -1.008,1.008 0,0.72 0.72,1.008 2.016,1.008 2.016,0 4.896,-0.144 7.344,-0.288 2.736,-0.144 5.184,-0.144 5.472,-0.144 1.872,0 5.18401,0 10.512,0.288 5.18399,0.144 12.52801,0.432 22.032,0.432 4.89599,0 6.192,0 7.056,-3.168 0.72,-2.592 1.728,-10.944 1.728,-11.808 0,-0.864 -0.144,-1.872 -0.864,-1.872 -0.72,0 -1.008,0.432 -1.296,1.872 -0.72,4.89599 -2.448,7.056 -5.76,8.496 -3.312,1.296 -9.36,1.296 -12.672,1.296 -12.52799,0 -14.832,-1.58401 -15.12,-9.792 -0.144,-2.448 0,-16.704 0,-20.88 l 0,-10.224 c 0,-0.432 0.144,-0.864 0.864,-0.864 2.16,0 15.696,0.144 19.152,0.576 4.89599,0.576 6.048,2.016 6.48,3.744 0.576,1.584 0.576,2.88 0.576,4.032 0,0.72 0.288,1.152 0.864,1.152 0.864,0 1.152,-1.296 1.152,-2.304 0,-0.864 0.288,-5.472 0.576,-7.92 0.288,-4.032 1.008,-6.048 1.008,-6.768 0,-0.72 -0.288,-1.008 -0.72,-1.008 -0.432,0 -1.008,0.72 -1.872,1.584 -1.296,1.296 -3.168,1.44 -6.192,1.728 -2.88,0.288 -19.584,0.288 -21.168,0.288 -0.72,0 -0.72,-0.432 -0.72,-1.296 l 0,-33.264 c 0,-0.864 0.144,-1.296 0.72,-1.296 1.44,0 16.128,0.144 18.288,0.432 6.91199,0.864 8.208,1.728 9.072,3.744 0.576,1.44 0.72,3.456 0.72,4.32 0,1.008 0.288,1.584 1.008,1.584 0.576,0 1.008,-0.72 1.152,-1.296 0.288,-1.44 0.576,-6.912 0.72,-8.064 0.288,-3.456 1.008,-4.896 1.008,-5.76 0,-0.576 -0.144,-1.152 -0.576,-1.152 -0.576,0 -1.152,0.432 -1.728,0.576 -1.008,0.144 -3.312,0.576 -5.76,0.72 -2.88,0.144 -29.376,0 -30.24,0 -0.72,0 -8.92801,-0.288 -14.688,-0.288 -1.44,0 -2.016,0.288 -2.016,1.008 0,0.432 0.576,1.008 1.008,1.008 1.152,0 3.312,0.144 4.32,0.288 4.176,0.576 4.896,2.592 5.184,6.768 0.288,3.888 0.288,7.34402 0.288,26.352 l 0,21.6"
         style="font-size:144px;-inkscape-font-specification:Trajan Pro"
         id="path3029" />
    </g>
  </g>
</svg>
